{"title":"Last Man Standing 1996 BRRip XviD MP3 Idiocracy","uid":8780739,"size":745467869,"categoryP":"video","categoryS":"movies","magnet":"?xt=urn:btih:fc28a1b4a7f2fd43d0dce80308a6513775240346&amp;dn=Last+Man+Standing+1996+BRRip+XviD+MP3+Idiocracy&amp;tr=udp%3A%2F%2Ftracker.openbittorrent.com%3A80&amp;tr=udp%3A%2F%2Fopen.demonii.com%3A1337&amp;tr=udp%3A%2F%2Ftracker.coppersurfer.tk%3A6969&amp;tr=udp%3A%2F%2Fexodus.desync.com%3A6969","seeders":1,"leechers":1,"uploader":"Satafakap","files":3,"time":1375703601,"description":"General\n\nComplete name              : Last.Man.Standing.1996.BRRip.XviD.MP3-Idiocracy.avi\nFormat                     : AVI\nFormat/Info                : Audio Video Interleave\nFile size                  : 704 MiB\nDuration                   : 1h 41mn\nOverall bit rate           : 974 Kbps\nWriting application        : VirtualDubMod 1.5.10.3 | www.virtualdub-fr.org ||\n                            (build 2550/release)\nWriting library            : VirtualDubMod build 2550/release\nSource\t\t           : Last.Man.Standing.1996.720p.BluRay.x264.YIFY - Thanks.\nSample\t\t           : Yes\n\nVideo\n\nID                                       : 0\nFormat                                   : MPEG-4 Visual\nFormat profile                           : Advanced Simple@L5\nFormat settings, BVOP                    : 4\nFormat settings, QPel                    : No\nFormat settings, GMC                     : No warppoints\nFormat settings, Matrix                  : Default (H.263)\nCodec ID                                 : XVID\nCodec ID/Hint                            : XviD\nDuration                                 : 1h 41mn\nBit rate                                 : 837 Kbps\nWidth                                    : 640 pixels\nHeight                                   : 272 pixels\nDisplay aspect ratio                     : 2.35:1\nFrame rate                               : 23.976 fps\nColor space                              : YUV\nChroma subsampling                       : 4:2:0\nBit depth                                : 8 bits\nScan type                                : Progressive\nCompression mode                         : Lossy\nBits/(Pixel*Frame)                       : 0.200\nStream size                              : 605 MiB (86%)\nWriting library                          : XviD 1.2.1 (UTC 2008-12-04)\n\nAudio\n\nID                                       : 1\nFormat                                   : MPEG Audio\nFormat version                           : Version 1\nFormat profile                           : Layer 3\nCodec ID                                 : 55\nCodec ID/Hint                            : MP3\nDuration                                 : 1h 41mn\nBit rate mode                            : Constant\nBit rate                                 : 128 Kbps\nChannel(s)                               : 2 channels\nSampling rate                            : 48.0 KHz\nCompression mode                         : Lossy\nStream size                              : 92.5 MiB (13%)\nAlignment                                : Aligned on interleaves\nInterleave, duration                     : 42 ms (1.00 video frame)\nInterleave, preload duration             : 504 ms\nWriting library                          : LAME3.99r\nEncoding settings                        : -m s -V 4 -q 2 -lowpass 17 -b 128\n","torrent":{"xt":"urn:btih:fc28a1b4a7f2fd43d0dce80308a6513775240346","amp;dn":"Last+Man+Standing+1996+BRRip+XviD+MP3+Idiocracy","amp;tr":["udp%3A%2F%2Ftracker.openbittorrent.com%3A80","udp%3A%2F%2Fopen.demonii.com%3A1337","udp%3A%2F%2Ftracker.coppersurfer.tk%3A6969","udp%3A%2F%2Fexodus.desync.com%3A6969"],"infoHash":"fc28a1b4a7f2fd43d0dce80308a6513775240346","infoHashBuffer":{"type":"Buffer","data":[252,40,161,180,167,242,253,67,208,220,232,3,8,166,81,55,117,36,3,70]},"announce":[],"urlList":[]}}